<mxfile host="app.diagrams.net" modified="2022-08-12T02:39:13.942Z" agent="5.0 (Windows NT 10.0; Win64; x64) AppleWebKit/537.36 (KHTML, like Gecko) Chrome/104.0.0.0 Safari/537.36" etag="P-MaG7TS6C1gF6xsDLJT" version="20.2.3" type="github">
  <diagram id="C5RBs43oDa-KdzZeNtuy" name="Page-1">
    <mxGraphModel dx="852" dy="437" grid="1" gridSize="10" guides="1" tooltips="1" connect="1" arrows="1" fold="1" page="1" pageScale="1" pageWidth="827" pageHeight="1169" math="0" shadow="0">
      <root>
        <mxCell id="WIyWlLk6GJQsqaUBKTNV-0" />
        <mxCell id="WIyWlLk6GJQsqaUBKTNV-1" parent="WIyWlLk6GJQsqaUBKTNV-0" />
        <mxCell id="6sny7bpwx-GG077Hk2YL-32" value="" style="rounded=0;whiteSpace=wrap;html=1;shadow=0;sketch=1;fontFamily=Architects Daughter;fontSource=https%3A%2F%2Ffonts.googleapis.com%2Fcss%3Ffamily%3DArchitects%2BDaughter;fontSize=12;fontColor=default;strokeColor=default;strokeWidth=1;fillColor=none;" vertex="1" parent="WIyWlLk6GJQsqaUBKTNV-1">
          <mxGeometry x="430" y="440" width="340" height="410" as="geometry" />
        </mxCell>
        <mxCell id="WIyWlLk6GJQsqaUBKTNV-2" value="" style="rounded=1;html=1;jettySize=auto;orthogonalLoop=1;fontSize=11;endArrow=block;endFill=0;endSize=8;strokeWidth=1;shadow=0;labelBackgroundColor=none;edgeStyle=orthogonalEdgeStyle;sketch=1;curved=1;fontFamily=Architects Daughter;fontSource=https%3A%2F%2Ffonts.googleapis.com%2Fcss%3Ffamily%3DArchitects%2BDaughter;" parent="WIyWlLk6GJQsqaUBKTNV-1" source="WIyWlLk6GJQsqaUBKTNV-3" target="WIyWlLk6GJQsqaUBKTNV-6" edge="1">
          <mxGeometry relative="1" as="geometry" />
        </mxCell>
        <mxCell id="WIyWlLk6GJQsqaUBKTNV-3" value="&lt;font&gt;微信掃碼&lt;/font&gt;" style="rounded=1;whiteSpace=wrap;html=1;fontSize=12;glass=0;strokeWidth=1;shadow=0;sketch=1;fontFamily=Architects Daughter;fontSource=https%3A%2F%2Ffonts.googleapis.com%2Fcss%3Ffamily%3DArchitects%2BDaughter;" parent="WIyWlLk6GJQsqaUBKTNV-1" vertex="1">
          <mxGeometry x="113" y="40" width="120" height="40" as="geometry" />
        </mxCell>
        <mxCell id="WIyWlLk6GJQsqaUBKTNV-4" value="Yes" style="rounded=1;html=1;jettySize=auto;orthogonalLoop=1;fontSize=11;endArrow=block;endFill=0;endSize=8;strokeWidth=1;shadow=0;labelBackgroundColor=none;edgeStyle=orthogonalEdgeStyle;sketch=1;curved=1;entryX=0.5;entryY=0;entryDx=0;entryDy=0;fontFamily=Architects Daughter;fontSource=https%3A%2F%2Ffonts.googleapis.com%2Fcss%3Ffamily%3DArchitects%2BDaughter;" parent="WIyWlLk6GJQsqaUBKTNV-1" source="WIyWlLk6GJQsqaUBKTNV-6" target="6sny7bpwx-GG077Hk2YL-1" edge="1">
          <mxGeometry x="-0.2" y="-20" relative="1" as="geometry">
            <mxPoint as="offset" />
            <mxPoint x="173" y="300" as="targetPoint" />
          </mxGeometry>
        </mxCell>
        <mxCell id="WIyWlLk6GJQsqaUBKTNV-5" value="No" style="edgeStyle=orthogonalEdgeStyle;rounded=1;html=1;jettySize=auto;orthogonalLoop=1;fontSize=11;endArrow=block;endFill=0;endSize=8;strokeWidth=1;shadow=0;labelBackgroundColor=none;sketch=1;curved=1;fontFamily=Architects Daughter;fontSource=https%3A%2F%2Ffonts.googleapis.com%2Fcss%3Ffamily%3DArchitects%2BDaughter;" parent="WIyWlLk6GJQsqaUBKTNV-1" source="WIyWlLk6GJQsqaUBKTNV-6" target="WIyWlLk6GJQsqaUBKTNV-7" edge="1">
          <mxGeometry y="10" relative="1" as="geometry">
            <mxPoint as="offset" />
          </mxGeometry>
        </mxCell>
        <mxCell id="WIyWlLk6GJQsqaUBKTNV-6" value="是否關注&lt;br&gt;公眾號" style="rhombus;whiteSpace=wrap;html=1;shadow=0;fontFamily=Architects Daughter;fontSize=12;align=center;strokeWidth=1;spacing=6;spacingTop=-4;sketch=1;rounded=1;fontSource=https%3A%2F%2Ffonts.googleapis.com%2Fcss%3Ffamily%3DArchitects%2BDaughter;" parent="WIyWlLk6GJQsqaUBKTNV-1" vertex="1">
          <mxGeometry x="123" y="130" width="100" height="80" as="geometry" />
        </mxCell>
        <mxCell id="6sny7bpwx-GG077Hk2YL-4" style="edgeStyle=orthogonalEdgeStyle;shape=connector;curved=1;rounded=1;sketch=1;orthogonalLoop=1;jettySize=auto;html=1;exitX=0.5;exitY=1;exitDx=0;exitDy=0;entryX=0.583;entryY=0;entryDx=0;entryDy=0;entryPerimeter=0;shadow=0;labelBackgroundColor=none;fontFamily=Architects Daughter;fontSize=11;fontColor=default;endArrow=block;endFill=0;endSize=8;strokeColor=default;strokeWidth=1;fontSource=https%3A%2F%2Ffonts.googleapis.com%2Fcss%3Ffamily%3DArchitects%2BDaughter;" edge="1" parent="WIyWlLk6GJQsqaUBKTNV-1" source="WIyWlLk6GJQsqaUBKTNV-7" target="6sny7bpwx-GG077Hk2YL-1">
          <mxGeometry relative="1" as="geometry" />
        </mxCell>
        <mxCell id="WIyWlLk6GJQsqaUBKTNV-7" value="關注公縱號" style="rounded=1;whiteSpace=wrap;html=1;fontSize=12;glass=0;strokeWidth=1;shadow=0;sketch=1;fontFamily=Architects Daughter;fontSource=https%3A%2F%2Ffonts.googleapis.com%2Fcss%3Ffamily%3DArchitects%2BDaughter;" parent="WIyWlLk6GJQsqaUBKTNV-1" vertex="1">
          <mxGeometry x="273" y="150" width="120" height="40" as="geometry" />
        </mxCell>
        <mxCell id="6sny7bpwx-GG077Hk2YL-3" style="edgeStyle=none;curved=1;rounded=1;sketch=1;hachureGap=4;orthogonalLoop=1;jettySize=auto;html=1;entryX=0.5;entryY=0;entryDx=0;entryDy=0;fontFamily=Architects Daughter;fontSource=https%3A%2F%2Ffonts.googleapis.com%2Fcss%3Ffamily%3DArchitects%2BDaughter;fontSize=11;endArrow=block;startSize=14;endSize=8;sourcePerimeterSpacing=8;targetPerimeterSpacing=8;labelBackgroundColor=none;endFill=0;strokeWidth=1;shadow=0;exitX=0.5;exitY=1;exitDx=0;exitDy=0;" edge="1" parent="WIyWlLk6GJQsqaUBKTNV-1" source="6sny7bpwx-GG077Hk2YL-1" target="6sny7bpwx-GG077Hk2YL-6">
          <mxGeometry relative="1" as="geometry">
            <mxPoint x="173" y="350.0000000000001" as="targetPoint" />
          </mxGeometry>
        </mxCell>
        <mxCell id="6sny7bpwx-GG077Hk2YL-1" value="&lt;font&gt;彈出模板消息&lt;/font&gt;" style="rounded=1;whiteSpace=wrap;html=1;fontSize=12;glass=0;strokeWidth=1;shadow=0;sketch=1;fontFamily=Architects Daughter;fontSource=https%3A%2F%2Ffonts.googleapis.com%2Fcss%3Ffamily%3DArchitects%2BDaughter;" vertex="1" parent="WIyWlLk6GJQsqaUBKTNV-1">
          <mxGeometry x="113" y="260" width="120" height="40" as="geometry" />
        </mxCell>
        <mxCell id="6sny7bpwx-GG077Hk2YL-10" style="edgeStyle=orthogonalEdgeStyle;shape=connector;curved=1;rounded=1;sketch=1;orthogonalLoop=1;jettySize=auto;html=1;exitX=1;exitY=0.5;exitDx=0;exitDy=0;shadow=0;labelBackgroundColor=none;fontFamily=Architects Daughter;fontSize=11;fontColor=default;endArrow=block;endFill=0;endSize=8;strokeColor=default;strokeWidth=1;fontSource=https%3A%2F%2Ffonts.googleapis.com%2Fcss%3Ffamily%3DArchitects%2BDaughter;" edge="1" parent="WIyWlLk6GJQsqaUBKTNV-1" source="6sny7bpwx-GG077Hk2YL-6">
          <mxGeometry relative="1" as="geometry">
            <mxPoint x="273" y="380.0000000000001" as="targetPoint" />
          </mxGeometry>
        </mxCell>
        <mxCell id="6sny7bpwx-GG077Hk2YL-12" value="No" style="edgeLabel;html=1;align=center;verticalAlign=middle;resizable=0;points=[];fontSize=11;fontFamily=Architects Daughter;fontColor=default;fontSource=https%3A%2F%2Ffonts.googleapis.com%2Fcss%3Ffamily%3DArchitects%2BDaughter;" vertex="1" connectable="0" parent="6sny7bpwx-GG077Hk2YL-10">
          <mxGeometry x="-0.26" relative="1" as="geometry">
            <mxPoint y="-10" as="offset" />
          </mxGeometry>
        </mxCell>
        <mxCell id="6sny7bpwx-GG077Hk2YL-14" style="edgeStyle=orthogonalEdgeStyle;shape=connector;curved=1;rounded=1;sketch=1;orthogonalLoop=1;jettySize=auto;html=1;shadow=0;labelBackgroundColor=none;fontFamily=Architects Daughter;fontSize=11;fontColor=default;endArrow=block;endFill=0;endSize=8;strokeColor=default;strokeWidth=1;entryX=0.5;entryY=0;entryDx=0;entryDy=0;fontSource=https%3A%2F%2Ffonts.googleapis.com%2Fcss%3Ffamily%3DArchitects%2BDaughter;" edge="1" parent="WIyWlLk6GJQsqaUBKTNV-1" source="6sny7bpwx-GG077Hk2YL-6" target="6sny7bpwx-GG077Hk2YL-15">
          <mxGeometry relative="1" as="geometry">
            <mxPoint x="173" y="464.5" as="targetPoint" />
          </mxGeometry>
        </mxCell>
        <mxCell id="6sny7bpwx-GG077Hk2YL-16" value="Yes" style="edgeLabel;html=1;align=center;verticalAlign=middle;resizable=0;points=[];fontSize=11;fontFamily=Architects Daughter;fontColor=default;fontSource=https%3A%2F%2Ffonts.googleapis.com%2Fcss%3Ffamily%3DArchitects%2BDaughter;" vertex="1" connectable="0" parent="6sny7bpwx-GG077Hk2YL-14">
          <mxGeometry x="-0.0956" relative="1" as="geometry">
            <mxPoint x="-20" as="offset" />
          </mxGeometry>
        </mxCell>
        <mxCell id="6sny7bpwx-GG077Hk2YL-6" value="&lt;span style=&quot;&quot;&gt;&lt;br&gt;打開授權頁面&lt;br&gt;是否授權&lt;br&gt;&lt;/span&gt;" style="rhombus;whiteSpace=wrap;html=1;shadow=0;fontFamily=Architects Daughter;fontSize=12;align=center;strokeWidth=1;spacing=6;spacingTop=-4;sketch=1;rounded=1;fontSource=https%3A%2F%2Ffonts.googleapis.com%2Fcss%3Ffamily%3DArchitects%2BDaughter;" vertex="1" parent="WIyWlLk6GJQsqaUBKTNV-1">
          <mxGeometry x="123" y="340" width="100" height="80" as="geometry" />
        </mxCell>
        <mxCell id="6sny7bpwx-GG077Hk2YL-11" value="授權失敗頁面" style="rounded=1;whiteSpace=wrap;html=1;fontSize=12;glass=0;strokeWidth=1;shadow=0;sketch=1;fontFamily=Architects Daughter;fontSource=https%3A%2F%2Ffonts.googleapis.com%2Fcss%3Ffamily%3DArchitects%2BDaughter;" vertex="1" parent="WIyWlLk6GJQsqaUBKTNV-1">
          <mxGeometry x="273" y="360" width="120" height="40" as="geometry" />
        </mxCell>
        <mxCell id="6sny7bpwx-GG077Hk2YL-15" value="授權成功頁面" style="rounded=1;whiteSpace=wrap;html=1;fontSize=12;glass=0;strokeWidth=1;shadow=0;sketch=1;fontFamily=Architects Daughter;fontSource=https%3A%2F%2Ffonts.googleapis.com%2Fcss%3Ffamily%3DArchitects%2BDaughter;" vertex="1" parent="WIyWlLk6GJQsqaUBKTNV-1">
          <mxGeometry x="113" y="480" width="120" height="40" as="geometry" />
        </mxCell>
        <mxCell id="6sny7bpwx-GG077Hk2YL-17" value="" style="endArrow=block;dashed=1;html=1;dashPattern=1 3;strokeWidth=2;rounded=1;shadow=0;labelBackgroundColor=none;sketch=1;fontFamily=Architects Daughter;fontSize=11;fontColor=default;endSize=8;shape=connector;curved=1;endFill=1;fontSource=https%3A%2F%2Ffonts.googleapis.com%2Fcss%3Ffamily%3DArchitects%2BDaughter;" edge="1" parent="WIyWlLk6GJQsqaUBKTNV-1">
          <mxGeometry width="50" height="50" relative="1" as="geometry">
            <mxPoint x="173" y="440" as="sourcePoint" />
            <mxPoint x="413" y="480" as="targetPoint" />
          </mxGeometry>
        </mxCell>
        <mxCell id="6sny7bpwx-GG077Hk2YL-18" value="後台機制" style="edgeLabel;html=1;align=center;verticalAlign=middle;resizable=0;points=[];fontSize=11;fontFamily=Architects Daughter;fontColor=default;fontSource=https%3A%2F%2Ffonts.googleapis.com%2Fcss%3Ffamily%3DArchitects%2BDaughter;" vertex="1" connectable="0" parent="6sny7bpwx-GG077Hk2YL-17">
          <mxGeometry x="-0.1716" y="4" relative="1" as="geometry">
            <mxPoint y="-13" as="offset" />
          </mxGeometry>
        </mxCell>
        <mxCell id="6sny7bpwx-GG077Hk2YL-23" value="" style="edgeStyle=orthogonalEdgeStyle;shape=connector;curved=1;rounded=1;sketch=1;orthogonalLoop=1;jettySize=auto;html=1;shadow=0;labelBackgroundColor=none;fontFamily=Architects Daughter;fontSource=https%3A%2F%2Ffonts.googleapis.com%2Fcss%3Ffamily%3DArchitects%2BDaughter;fontSize=11;fontColor=default;endArrow=block;endFill=1;endSize=8;strokeColor=default;strokeWidth=1;" edge="1" parent="WIyWlLk6GJQsqaUBKTNV-1" source="6sny7bpwx-GG077Hk2YL-19" target="6sny7bpwx-GG077Hk2YL-22">
          <mxGeometry relative="1" as="geometry" />
        </mxCell>
        <mxCell id="6sny7bpwx-GG077Hk2YL-19" value="&lt;font data-font-src=&quot;https://fonts.googleapis.com/css?family=Architects+Daughter&quot;&gt;微數API&lt;/font&gt;" style="rounded=1;whiteSpace=wrap;html=1;sketch=1;hachureGap=4;fontFamily=Architects Daughter;fontSource=https%3A%2F%2Ffonts.googleapis.com%2Fcss%3Ffamily%3DArchitects%2BDaughter;fontSize=11;fontColor=default;" vertex="1" parent="WIyWlLk6GJQsqaUBKTNV-1">
          <mxGeometry x="460" y="470" width="120" height="40" as="geometry" />
        </mxCell>
        <mxCell id="6sny7bpwx-GG077Hk2YL-25" value="" style="edgeStyle=orthogonalEdgeStyle;shape=connector;curved=1;rounded=1;sketch=1;orthogonalLoop=1;jettySize=auto;html=1;shadow=0;labelBackgroundColor=none;fontFamily=Architects Daughter;fontSource=https%3A%2F%2Ffonts.googleapis.com%2Fcss%3Ffamily%3DArchitects%2BDaughter;fontSize=12;fontColor=default;endArrow=block;endFill=1;endSize=8;strokeColor=default;strokeWidth=1;" edge="1" parent="WIyWlLk6GJQsqaUBKTNV-1" source="6sny7bpwx-GG077Hk2YL-22" target="6sny7bpwx-GG077Hk2YL-24">
          <mxGeometry relative="1" as="geometry" />
        </mxCell>
        <mxCell id="6sny7bpwx-GG077Hk2YL-28" value="No" style="edgeLabel;html=1;align=center;verticalAlign=middle;resizable=0;points=[];fontSize=12;fontFamily=Architects Daughter;fontColor=default;" vertex="1" connectable="0" parent="6sny7bpwx-GG077Hk2YL-25">
          <mxGeometry x="-0.3289" y="-2" relative="1" as="geometry">
            <mxPoint y="-17" as="offset" />
          </mxGeometry>
        </mxCell>
        <mxCell id="6sny7bpwx-GG077Hk2YL-27" value="" style="edgeStyle=orthogonalEdgeStyle;shape=connector;curved=1;rounded=1;sketch=1;orthogonalLoop=1;jettySize=auto;html=1;shadow=0;labelBackgroundColor=none;fontFamily=Architects Daughter;fontSource=https%3A%2F%2Ffonts.googleapis.com%2Fcss%3Ffamily%3DArchitects%2BDaughter;fontSize=12;fontColor=default;endArrow=block;endFill=1;endSize=8;strokeColor=default;strokeWidth=1;" edge="1" parent="WIyWlLk6GJQsqaUBKTNV-1" source="6sny7bpwx-GG077Hk2YL-22" target="6sny7bpwx-GG077Hk2YL-26">
          <mxGeometry relative="1" as="geometry" />
        </mxCell>
        <mxCell id="6sny7bpwx-GG077Hk2YL-29" value="Yes" style="edgeLabel;html=1;align=center;verticalAlign=middle;resizable=0;points=[];fontSize=12;fontFamily=Architects Daughter;fontColor=default;" vertex="1" connectable="0" parent="6sny7bpwx-GG077Hk2YL-27">
          <mxGeometry x="-0.2276" y="-1" relative="1" as="geometry">
            <mxPoint x="-19" as="offset" />
          </mxGeometry>
        </mxCell>
        <mxCell id="6sny7bpwx-GG077Hk2YL-22" value="是否獲取&lt;br&gt;用戶信息" style="rhombus;whiteSpace=wrap;html=1;sketch=1;hachureGap=4;fontFamily=Architects Daughter;fontSource=https%3A%2F%2Ffonts.googleapis.com%2Fcss%3Ffamily%3DArchitects%2BDaughter;fontSize=12;fontColor=default;shadow=0;strokeWidth=1;spacing=6;spacingTop=-4;rounded=1;align=center;arcSize=8;" vertex="1" parent="WIyWlLk6GJQsqaUBKTNV-1">
          <mxGeometry x="475" y="547" width="90" height="75" as="geometry" />
        </mxCell>
        <mxCell id="6sny7bpwx-GG077Hk2YL-24" value="返回授權失敗" style="whiteSpace=wrap;html=1;rounded=1;shadow=0;sketch=1;fontFamily=Architects Daughter;fontSource=https%3A%2F%2Ffonts.googleapis.com%2Fcss%3Ffamily%3DArchitects%2BDaughter;fontSize=12;fontColor=default;strokeColor=default;strokeWidth=1;fillColor=default;" vertex="1" parent="WIyWlLk6GJQsqaUBKTNV-1">
          <mxGeometry x="620" y="555" width="120" height="60" as="geometry" />
        </mxCell>
        <mxCell id="6sny7bpwx-GG077Hk2YL-31" value="" style="edgeStyle=orthogonalEdgeStyle;shape=connector;curved=1;rounded=1;sketch=1;orthogonalLoop=1;jettySize=auto;html=1;shadow=0;labelBackgroundColor=none;fontFamily=Architects Daughter;fontSource=https%3A%2F%2Ffonts.googleapis.com%2Fcss%3Ffamily%3DArchitects%2BDaughter;fontSize=12;fontColor=default;endArrow=block;endFill=1;endSize=8;strokeColor=default;strokeWidth=1;" edge="1" parent="WIyWlLk6GJQsqaUBKTNV-1" source="6sny7bpwx-GG077Hk2YL-26" target="6sny7bpwx-GG077Hk2YL-30">
          <mxGeometry relative="1" as="geometry" />
        </mxCell>
        <mxCell id="6sny7bpwx-GG077Hk2YL-26" value="將用戶信息發送到notify-api" style="whiteSpace=wrap;html=1;rounded=1;shadow=0;sketch=1;fontFamily=Architects Daughter;fontSource=https%3A%2F%2Ffonts.googleapis.com%2Fcss%3Ffamily%3DArchitects%2BDaughter;fontSize=12;fontColor=default;strokeColor=default;strokeWidth=1;fillColor=default;" vertex="1" parent="WIyWlLk6GJQsqaUBKTNV-1">
          <mxGeometry x="460" y="680" width="120" height="50" as="geometry" />
        </mxCell>
        <mxCell id="6sny7bpwx-GG077Hk2YL-30" value="返回授權成功" style="whiteSpace=wrap;html=1;rounded=1;shadow=0;sketch=1;fontFamily=Architects Daughter;fontSource=https%3A%2F%2Ffonts.googleapis.com%2Fcss%3Ffamily%3DArchitects%2BDaughter;fontSize=12;fontColor=default;strokeColor=default;strokeWidth=1;fillColor=default;" vertex="1" parent="WIyWlLk6GJQsqaUBKTNV-1">
          <mxGeometry x="460" y="780" width="120" height="40" as="geometry" />
        </mxCell>
      </root>
    </mxGraphModel>
  </diagram>
</mxfile>
